HIERARCHY
ROOT joint_0
{
	OFFSET 0.000000 0.000000 0.000000
	CHANNELS 6 Xposition Yposition Zposition Zrotation Yrotation Xrotation 
	JOINT joint_1
	{
		OFFSET 0.587158 0.057678 95.682007
		CHANNELS 3 Zrotation Yrotation Xrotation
		JOINT joint_2
		{
			OFFSET -7.116699 -0.219910 87.157959
			CHANNELS 3 Zrotation Yrotation Xrotation
			JOINT joint_3
			{
				OFFSET -5.892822 -0.290222 87.151001
				CHANNELS 3 Zrotation Yrotation Xrotation
				JOINT joint_4
				{
					OFFSET 5.544678 -0.099609 123.768066
					CHANNELS 3 Zrotation Yrotation Xrotation
					JOINT joint_5
					{
						OFFSET 41.981201 4.519775 84.257935
						CHANNELS 3 Zrotation Yrotation Xrotation
						End Site
						{
							OFFSET 0.000000 0.000000 0.000000
						}
					}
				}
				JOINT joint_6
				{
					OFFSET 3.940918 -26.976501 69.308105
					CHANNELS 3 Zrotation Yrotation Xrotation
					JOINT joint_7
					{
						OFFSET 4.776123 -152.592468 -16.842041
						CHANNELS 3 Zrotation Yrotation Xrotation
						JOINT joint_8
						{
							OFFSET 54.421875 -30.424072 -248.864014
							CHANNELS 3 Zrotation Yrotation Xrotation
							JOINT joint_9
							{
								OFFSET 42.120117 -33.387878 -236.524963
								CHANNELS 3 Zrotation Yrotation Xrotation
								End Site
								{
									OFFSET 0.000000 0.000000 0.000000
								}
							}
						}
					}
				}
				JOINT joint_10
				{
					OFFSET 2.312012 26.904114 69.425049
					CHANNELS 3 Zrotation Yrotation Xrotation
					JOINT joint_11
					{
						OFFSET 0.971436 152.197815 -20.626953
						CHANNELS 3 Zrotation Yrotation Xrotation
						JOINT joint_12
						{
							OFFSET 49.954102 28.991455 -249.970093
							CHANNELS 3 Zrotation Yrotation Xrotation
							JOINT joint_13
							{
								OFFSET 48.146973 19.598389 -236.919922
								CHANNELS 3 Zrotation Yrotation Xrotation
								End Site
								{
									OFFSET 0.000000 0.000000 0.000000
								}
							}
						}
					}
				}
			}
		}
	}
	JOINT joint_14
	{
		OFFSET 16.305664 -89.442932 -108.224976
		CHANNELS 3 Zrotation Yrotation Xrotation
		JOINT joint_15
		{
			OFFSET -22.282471 13.437134 -412.904968
			CHANNELS 3 Zrotation Yrotation Xrotation
			JOINT joint_16
			{
				OFFSET -45.426025 14.484802 -445.892029
				CHANNELS 3 Zrotation Yrotation Xrotation
				JOINT joint_17
				{
					OFFSET 173.389404 -9.944031 -76.473001
					CHANNELS 3 Zrotation Yrotation Xrotation
					End Site
					{
						OFFSET 0.000000 0.000000 0.000000
					}
				}
			}
		}
	}
	JOINT joint_18
	{
		OFFSET 13.392822 89.408875 -108.653992
		CHANNELS 3 Zrotation Yrotation Xrotation
		JOINT joint_19
		{
			OFFSET -29.032959 24.483521 -411.977966
			CHANNELS 3 Zrotation Yrotation Xrotation
			JOINT joint_20
			{
				OFFSET -30.530029 28.986328 -446.453018
				CHANNELS 3 Zrotation Yrotation Xrotation
				JOINT joint_21
				{
					OFFSET 170.330078 33.400757 -76.698997
					CHANNELS 3 Zrotation Yrotation Xrotation
					End Site
					{
						OFFSET 0.000000 0.000000 0.000000
					}
				}
			}
		}
	}
}
MOTION
Frames: 12
Frame Time: 0.016667
-2203.869629 989.198730 1061.000977 0.068619 -0.284786 -0.495455 -0.081150 -0.545877 0.883042 -0.169356 0.042471 -0.219052 -0.145016 -0.012844 0.143021 0.002594 0.478088 -0.056594 0.000000 0.000000 0.000000 0.678526 1.234995 -0.202372 -0.104552 1.329606 0.059229 0.162237 -1.607643 -0.361849 0.000000 0.000000 0.000000 0.901635 0.762095 -0.817064 0.255317 0.663816 0.826257 -0.116962 -0.443456 -0.394591 0.000000 0.000000 0.000000 -0.160265 -0.077351 0.305616 -0.110322 1.687640 0.445494 -0.134100 -0.758738 -0.102647 0.000000 0.000000 0.000000 0.073702 0.389325 0.227503 0.054626 0.867622 0.901905 0.003568 -0.719753 0.142725 0.000000 0.000000 0.000000 
-2203.511963 988.964661 1061.050049 0.056442 -0.242333 -0.494738 -0.017264 -0.463711 0.785908 -0.093816 0.043120 -0.170937 -0.075213 -0.021899 0.106785 -0.022990 0.439688 -0.001012 0.000000 0.000000 0.000000 1.391096 1.704370 -0.486585 0.085611 1.894166 0.969606 0.047421 -2.323481 -1.561279 0.000000 0.000000 0.000000 0.732805 0.706202 -0.761777 0.248427 0.630321 0.810163 -0.111227 -0.449595 -0.363762 0.000000 0.000000 0.000000 -0.155248 -0.095623 0.326943 -0.103163 1.671068 0.428326 -0.128231 -0.751793 -0.099661 0.000000 0.000000 0.000000 0.085320 0.363623 0.231598 0.066668 0.874852 0.927874 0.014596 -0.745146 0.152666 0.000000 0.000000 0.000000 
-2203.183350 988.766479 1061.104980 0.057189 -0.194427 -0.499492 0.085436 -0.374971 0.680525 0.021339 0.040320 -0.120856 0.033995 -0.019221 0.068681 -0.063009 0.378706 0.085965 0.000000 0.000000 0.000000 1.965021 1.901121 -0.590408 0.200842 2.160976 1.483015 -0.120441 -2.385514 -2.530106 0.000000 0.000000 0.000000 0.629608 0.614406 -0.758475 0.246616 0.552052 0.841737 -0.115410 -0.484583 -0.369692 0.000000 0.000000 0.000000 -0.156969 -0.120646 0.353965 -0.102220 1.650558 0.408895 -0.127705 -0.717255 -0.097447 0.000000 0.000000 0.000000 0.092778 0.316029 0.245920 0.078574 0.903920 0.943918 0.023512 -0.769890 0.161530 0.000000 0.000000 0.000000 
-2203.056152 988.628967 1061.099976 0.052977 -0.180224 -0.512272 0.271241 -0.246202 0.528723 0.223909 0.017749 -0.062052 0.229620 0.016782 0.022156 -0.146777 0.294460 0.263084 0.000000 0.000000 0.000000 2.246417 1.626730 -0.312041 0.163144 1.903850 1.190354 -0.380962 -1.183308 -3.028521 0.000000 0.000000 0.000000 0.700972 0.339248 -0.879913 0.220367 0.262226 0.927731 -0.085298 -0.183816 -0.344179 0.000000 0.000000 0.000000 -0.157787 -0.113414 0.393577 -0.100611 1.610452 0.375197 -0.126141 -0.636320 -0.092114 0.000000 0.000000 0.000000 0.102727 0.297945 0.261440 0.089963 0.926847 0.973789 0.033404 -0.792343 0.170383 0.000000 0.000000 0.000000 
-2202.959961 988.526184 1061.099976 0.062582 -0.161217 -0.530441 0.495078 -0.107372 0.368857 0.465067 -0.010772 -0.003714 0.463885 0.066514 -0.024901 -0.247100 0.183781 0.476069 0.000000 0.000000 0.000000 2.393782 1.095709 0.141609 0.035083 1.365702 0.441551 -0.680616 0.638060 -3.238614 0.000000 0.000000 0.000000 0.840206 0.027480 -1.058345 0.198639 -0.073513 1.058077 -0.064829 0.087612 -0.354554 0.000000 0.000000 0.000000 -0.165756 -0.112241 0.438956 -0.105651 1.566366 0.339236 -0.130318 -0.527231 -0.087698 0.000000 0.000000 0.000000 0.108120 0.258293 0.287282 0.100830 0.972018 0.993698 0.040754 -0.814553 0.178045 0.000000 0.000000 0.000000 
-2202.490723 988.479858 1061.267944 0.151522 -0.029848 -0.549823 0.637895 -0.059251 0.333175 0.611735 -0.019511 0.009560 0.609043 0.089802 -0.035336 -0.291403 0.033469 0.580818 0.000000 0.000000 0.000000 2.555198 0.572467 0.320649 -0.072736 0.846596 -0.195074 -0.871408 1.916719 -3.247542 0.000000 0.000000 0.000000 0.839246 0.097336 -1.140218 0.277852 0.005007 1.281854 -0.205429 -0.775993 -0.685861 0.000000 0.000000 0.000000 -0.208634 -0.231234 0.466875 -0.143077 1.567446 0.338828 -0.163629 -0.426184 -0.096589 0.000000 0.000000 0.000000 0.085921 0.033118 0.356355 0.112359 1.143357 0.918883 0.034721 -0.834627 0.179266 0.000000 0.000000 0.000000 
-2201.320801 988.608765 1061.703003 0.365137 0.311452 -0.590410 0.637187 -0.231043 0.601692 0.581722 0.034368 -0.090814 0.590508 0.042906 0.038084 -0.225818 -0.173726 0.471278 0.000000 0.000000 0.000000 2.813808 0.151675 -0.050251 -0.097422 0.460395 -0.448596 -0.920249 2.334367 -3.164849 0.000000 0.000000 0.000000 0.551937 0.961411 -1.151659 0.562433 0.942083 1.770630 -0.654962 -3.865894 -1.563196 0.000000 0.000000 0.000000 -0.308006 -0.562678 0.474040 -0.233332 1.627194 0.413416 -0.242105 -0.328595 -0.125588 0.000000 0.000000 0.000000 0.018176 -0.487384 0.506001 0.120391 1.462847 0.702840 0.008893 -0.825573 0.165869 0.000000 0.000000 0.000000 
-2199.778809 988.794067 1062.305054 0.658503 0.766568 -0.632050 0.554683 -0.498303 1.000749 0.454719 0.109766 -0.253781 0.482179 -0.034942 0.157055 -0.112423 -0.418769 0.269794 0.000000 0.000000 0.000000 3.099611 -0.257895 -0.704701 -0.083836 0.097553 -0.556424 -0.857157 2.207892 -2.919543 0.000000 0.000000 0.000000 0.086808 2.219912 -1.234667 0.959266 2.307038 2.516449 -1.248352 -8.137953 -2.624833 0.000000 0.000000 0.000000 -0.442913 -1.015715 0.466257 -0.356443 1.732096 0.523326 -0.350134 -0.236288 -0.167910 0.000000 0.000000 0.000000 -0.078365 -1.196264 0.699925 0.128208 1.910019 0.393883 -0.030363 -0.805935 0.144358 0.000000 0.000000 0.000000 
-2198.437744 988.701843 1062.947998 0.967250 1.154901 -0.612931 0.458705 -0.604551 1.140382 0.340707 0.143416 -0.342594 0.378590 -0.078923 0.225303 -0.044631 -0.637807 0.157141 0.000000 0.000000 0.000000 3.322156 -0.668462 -1.305676 -0.058867 -0.276229 -0.662822 -0.627403 1.339859 -2.373030 0.000000 0.000000 0.000000 -0.322650 3.059625 -1.200706 1.261359 3.231523 3.131883 -1.689398 -11.432374 -3.446929 0.000000 0.000000 0.000000 -0.580687 -1.431210 0.434620 -0.481069 1.888274 0.590050 -0.466584 -0.188688 -0.216494 0.000000 0.000000 0.000000 -0.176029 -1.935785 0.859963 0.146604 2.525518 0.054413 -0.075681 -0.841071 0.130870 0.000000 0.000000 0.000000 
-2197.739014 988.070740 1063.641968 1.340601 1.393345 -0.482432 0.348229 -0.391588 0.780109 0.264635 0.098099 -0.267484 0.294856 -0.060452 0.184378 -0.061899 -0.792463 0.207852 0.000000 0.000000 0.000000 3.472494 -1.087105 -1.650049 -0.042948 -0.676013 -0.868838 -0.227424 -0.443570 -1.609759 0.000000 0.000000 0.000000 -0.571037 3.029211 -0.747489 1.302380 3.239640 3.181239 -1.805822 -12.245559 -3.729906 0.000000 0.000000 0.000000 -0.736176 -1.750572 0.373629 -0.620494 2.116774 0.552534 -0.611660 -0.219756 -0.282184 0.000000 0.000000 0.000000 -0.285803 -2.731622 0.963108 0.176130 3.466942 -0.348915 -0.141558 -0.981274 0.128767 0.000000 0.000000 0.000000 
-2197.241455 987.163086 1064.375977 1.735070 1.566862 -0.299757 0.221205 -0.017645 0.179797 0.197984 0.015713 -0.108827 0.210911 -0.011694 0.082108 -0.110926 -0.927651 0.319366 0.000000 0.000000 0.000000 3.563108 -1.507138 -1.882972 -0.055245 -1.086405 -1.141301 0.311727 -2.991348 -0.587214 0.000000 0.000000 0.000000 -0.739088 2.586934 0.003453 1.221469 2.816449 2.948526 -1.823856 -12.092394 -3.916212 0.000000 0.000000 0.000000 -0.895837 -2.036740 0.296333 -0.762633 2.396858 0.471944 -0.766265 -0.291777 -0.354377 0.000000 0.000000 0.000000 -0.400046 -3.564342 1.037411 0.212982 4.580251 -0.775664 -0.213201 -1.158646 0.131420 0.000000 0.000000 0.000000 
-2196.195557 986.425476 1064.984009 1.943861 1.744230 -0.161952 0.146373 0.310050 -0.325368 0.175682 -0.057954 0.038291 0.171923 0.034878 -0.021767 -0.136369 -1.080440 0.385043 0.000000 0.000000 0.000000 3.536612 -1.908158 -2.170475 -0.142910 -1.483268 -1.445960 0.994792 -6.093399 1.046974 0.000000 0.000000 0.000000 -0.831965 2.294115 0.791336 1.253553 2.543187 2.981651 -2.107185 -13.357691 -4.868706 0.000000 0.000000 0.000000 -0.981414 -2.308310 0.212746 -0.835258 2.673846 0.453834 -0.847848 -0.348900 -0.393501 0.000000 0.000000 0.000000 -0.458595 -4.198571 1.080931 0.266060 5.431695 -1.067741 -0.239916 -1.292677 0.145791 0.000000 0.000000 0.000000 
